# xmcd
#
# Track frame offsets: 
#        150
#        21387
#        38905
#        59002
#        73902
#        95572
#        115030
#        131302
#        152665
#        166687
#
# Disc length: 2476 seconds
#
# Revision: 2
# Processed by: cddbd v1.5.2PL0 Copyright (c) Steve Scherf et al.
# Submitted via: ExactAudioCopy v0.95b4
#
DISCID=8309aa0a
DTITLE=Wild 'T' And The Spirit - Givin' Blood
DYEAR=1993
DGENRE=Hard Rock
TTITLE0=I'm A River
TTITLE1=Freedom Train
TTITLE2=Every-thang
TTITLE3=I've Got The Rhythm ...
TTITLE4=Loveland
TTITLE5=Talk Dirty
TTITLE6=Wild Frontier
TTITLE7=Telephone Freak
TTITLE8=It Ain't Where Yore From ...
TTITLE9=Lovesick Woman
EXTD=
EXTT0=
EXTT1=
EXTT2=
EXTT3=
EXTT4=
EXTT5=
EXTT6=
EXTT7=
EXTT8=
EXTT9=
PLAYORDER=
